<?xml version="1.0" encoding="UTF-8"?>
<svg version="1.1" xmlns="http://www.w3.org/2000/svg" width="512" height="512">
<path d="M0 0 C0.97055328 0.00215515 1.94110657 0.0043103 2.94107056 0.00653076 C17.26930898 0.0575666 31.29685782 0.40491562 45.375 3.3125 C46.35807129 3.51117676 47.34114258 3.70985352 48.35400391 3.91455078 C64.37168856 7.2458499 81.64188575 11.1592728 96.22584724 18.80757713 C104.75763677 23.25118216 111.70442072 24.1558887 121.23388672 24.02197266 C122.67270941 24.023599 124.11153114 24.02792678 125.55033875 24.03471375 C128.62031239 24.04365626 131.68944649 24.03419298 134.75933456 24.00981522 C139.61839016 23.9716471 144.47681282 23.97763323 149.33596802 23.98934937 C158.76567683 24.00611456 168.1949948 23.97817746 177.62464142 23.94593048 C189.6488491 23.90731867 201.67299478 23.89135672 213.69725049 23.91113508 C218.52345541 23.9176482 223.34901644 23.90345744 228.17512202 23.87268472 C231.17680805 23.85729261 234.17833381 23.85826991 237.18004799 23.86342812 C238.56716652 23.86236979 239.95430007 23.85446312 241.34133339 23.8390522 C250.10710019 23.74580916 255.73377297 24.01335544 262.3359375 30.12890625 C262.80257813 30.70511719 263.26921875 31.28132813 263.75 31.875 C264.47316406 32.74318359 264.47316406 32.74318359 265.2109375 33.62890625 C267.59944589 37.08342677 267.50179198 40.24066241 267.50642776 44.3027544 C267.51026891 45.56253316 267.51411005 46.82231191 267.5180676 48.12026578 C267.51728731 49.52612553 267.51640851 50.93198522 267.51544189 52.33784485 C267.51802477 53.82521157 267.52103771 55.31257761 267.5244453 56.79994267 C267.5325276 60.89755257 267.53430555 64.99514495 267.53504276 69.09276187 C267.53689117 73.50800287 267.54443741 77.92323473 267.55117798 82.33847046 C267.56477034 91.99747729 267.57078736 101.65647997 267.57518864 111.31549478 C267.57794941 117.34406577 267.58218645 123.37263516 267.58669281 129.40120506 C267.59888642 146.08536459 267.60918571 162.76952283 267.6125679 179.45368671 C267.61278747 180.52187964 267.61300703 181.59007257 267.61323325 182.69063498 C267.61345153 183.76141414 267.61366981 184.83219331 267.6138947 185.93542033 C267.61433817 188.10530301 267.61478473 190.27518568 267.61523438 192.44506836 C267.6154558 193.52140992 267.61567723 194.59775149 267.61590537 195.70670947 C267.61985449 213.15240628 267.63731156 230.59806135 267.6605939 248.04374204 C267.68429254 265.9455241 267.69676907 283.84728521 267.69793582 301.74908322 C267.69885339 311.80410769 267.70462642 321.85907778 267.72275543 331.9140873 C267.73813633 340.47518685 267.74328878 349.03621522 267.73501733 357.59732596 C267.73110374 361.9666437 267.73207487 366.33581798 267.74607468 370.70511818 C267.75877115 374.70416049 267.75765373 378.70295091 267.74548396 382.70199265 C267.74351957 384.14951264 267.74663956 385.59705021 267.75532833 387.04454545 C267.76638723 389.01124192 267.75716103 390.97802119 267.7469368 392.94472218 C267.74783243 394.58381384 267.74783243 394.58381384 267.74874616 396.25601846 C267.11696006 401.42274062 264.96125593 405.30047961 260.9375 408.5625 C260.36128906 409.04203125 259.78507812 409.5215625 259.19140625 410.015625 C254.79981783 413.15112469 251.78018381 413.53636222 246.33422852 413.42504883 C244.8804191 413.40259053 243.42660733 413.38028423 241.97279358 413.35810852 C240.82050105 413.33518958 240.82050105 413.33518958 239.64492989 413.31180763 C235.54809238 413.23937026 231.45088272 413.22959458 227.35351562 413.20898438 C222.15193619 413.1794768 216.95260667 413.13199563 211.75219727 413.0144043 C207.53858988 412.92077802 203.32869316 412.89215406 199.11411858 412.90479088 C197.51971508 412.89803895 195.92521677 412.86836446 194.33172798 412.81394386 C187.3169922 412.58418643 181.19768793 412.43990152 175.60299683 417.13729858 C172.77299011 419.83075891 170.24768714 422.73184744 167.7579937 425.7381649 C164.17689645 429.81471788 159.64288983 432.99502261 155.375 436.3125 C153.90160156 437.49392578 153.90160156 437.49392578 152.3984375 438.69921875 C130.57372485 456.06696522 105.79342858 469.41125841 79.375 478.3125 C78.18076416 478.72338867 78.18076416 478.72338867 76.96240234 479.14257812 C56.36983445 486.13167293 34.32135011 490.40181567 12.546875 490.515625 C11.64355438 490.52263931 10.74023376 490.52965363 9.80953979 490.53688049 C6.91464181 490.55427133 4.01994829 490.56073161 1.125 490.5625 C-0.35797577 490.56351212 -0.35797577 490.56351212 -1.87091064 490.56454468 C-16.01268499 490.54918535 -29.73476142 490.18998822 -43.625 487.3125 C-44.47400879 487.15152832 -45.32301758 486.99055664 -46.19775391 486.82470703 C-90.43707304 478.38852253 -131.65512232 458.02090593 -164.625 427.3125 C-165.99575183 426.12009878 -167.37057863 424.93236117 -168.75 423.75 C-175.62069648 417.73297723 -181.63315 411.28081532 -187.34375 404.15234375 C-188.82092633 402.31346157 -190.3197954 400.49171177 -191.84375 398.69140625 C-202.55284116 386.00264155 -210.93095286 371.98210835 -218.625 357.3125 C-219.0051123 356.59707031 -219.38522461 355.88164062 -219.77685547 355.14453125 C-237.55595172 321.26783245 -245.07910604 283.44115919 -245 245.4375 C-244.99945618 244.45038025 -244.99891235 243.4632605 -244.99835205 242.44622803 C-244.95789301 226.42606458 -244.09019504 211.0093359 -240.625 195.3125 C-240.40537598 194.31718262 -240.18575195 193.32186523 -239.95947266 192.29638672 C-238.42012914 185.56053323 -236.61429679 178.92840961 -234.625 172.3125 C-234.38475098 171.49861816 -234.14450195 170.68473633 -233.89697266 169.84619141 C-225.14258548 140.84469076 -209.76638288 113.67449836 -190.625 90.3125 C-190.16802734 89.75401367 -189.71105469 89.19552734 -189.24023438 88.62011719 C-178.81005955 75.95288863 -167.60262281 64.39139833 -154.625 54.3125 C-153.37066299 53.30652646 -152.11678805 52.29997659 -150.86328125 51.29296875 C-107.84740387 17.12152535 -54.65833056 -0.21870583 0 0 Z " fill="#132993" transform="translate(244.625,10.6875)"/>
<path d="M0 0 C64.68 0 129.36 0 196 0 C196.04033135 68.21823631 196.04033135 68.21823631 196.04882812 96.63867188 C196.05078614 103.1444499 196.05280666 109.65022789 196.05493164 116.15600586 C196.05519539 116.97145243 196.05545914 117.78689899 196.05573088 118.62705606 C196.06008579 131.80934574 196.06797269 144.99163108 196.0771528 158.17391818 C196.08648875 171.69226108 196.09205549 185.2106017 196.09408849 198.7289477 C196.09546384 207.07731829 196.09981508 215.42567663 196.10791647 223.77404345 C196.11318321 229.49092429 196.11480446 235.20779874 196.11350138 240.92468183 C196.11285788 244.22802503 196.11441521 247.53134204 196.11920547 250.83468246 C196.12413533 254.40766372 196.12300092 257.98059127 196.12025452 261.55357361 C196.12462378 263.13671125 196.12462378 263.13671125 196.12908131 264.75183147 C196.12709026 265.70130612 196.12509921 266.65078076 196.12304783 267.62902737 C196.12342755 268.45491908 196.12380727 269.2808108 196.1241985 270.13172954 C196 272 196 272 195 273 C192.48325639 273.09773905 189.99398173 273.12995545 187.47679138 273.12025452 C186.28107068 273.12153615 186.28107068 273.12153615 185.061194 273.12284368 C182.36946835 273.12450092 179.67780397 273.11897316 176.98608398 273.11352539 C175.06477866 273.11324355 173.14347323 273.1134012 171.22216797 273.1139679 C165.98891366 273.11425597 160.75568205 273.10835759 155.52243304 273.10139394 C150.0598021 273.0951621 144.59717069 273.09455674 139.13453674 273.09336853 C128.78247776 273.09025471 118.43042927 273.08204064 108.07837492 273.07201904 C94.09513888 273.05877469 80.11189998 273.05335841 66.12865925 273.04751682 C44.08576496 273.03810078 22.04289284 273.0181822 0 273 C0 221.19 0 169.38 0 116 C-16.83 116 -33.66 116 -51 116 C-51 90.59 -51 65.18 -51 39 C-34.17 39 -17.34 39 0 39 C0 26.13 0 13.26 0 0 Z " fill="#E6F1FB" transform="translate(289,63)"/>
<path d="M0 0 C0.66308111 -0.00346153 1.32616223 -0.00692307 2.00933671 -0.01048949 C4.24110342 -0.01845832 6.47222661 -0.00494896 8.70396042 0.00837994 C10.31608633 0.00707221 11.92821163 0.0044464 13.54033351 0.00061244 C17.97799117 -0.00611097 22.41543254 0.00592557 26.85306263 0.02094662 C31.63558645 0.03387604 36.41809762 0.02951972 41.200634 0.0272398 C49.48924027 0.0256651 57.77777581 0.03509481 66.06636429 0.05195332 C78.05032941 0.07631216 90.03426026 0.08414539 102.01824746 0.08791729 C121.46044054 0.09448667 140.90259592 0.11446102 160.34476852 0.14282513 C179.23343848 0.17035311 198.12209819 0.19159286 217.01078415 0.20434856 C218.17466153 0.20513673 219.33853891 0.20592491 220.5376853 0.20673696 C226.37639049 0.21065201 232.21509575 0.21444315 238.05380106 0.21817267 C286.50823816 0.24928372 334.96263432 0.30213275 383.41703415 0.36914349 C383.41703415 0.69914349 383.41703415 1.02914349 383.41703415 1.36914349 C319.06703415 1.36914349 254.71703415 1.36914349 188.41703415 1.36914349 C188.41703415 14.23914349 188.41703415 27.10914349 188.41703415 40.36914349 C171.58703415 40.36914349 154.75703415 40.36914349 137.41703415 40.36914349 C137.41703415 65.77914349 137.41703415 91.18914349 137.41703415 117.36914349 C154.24703415 117.36914349 171.07703415 117.36914349 188.41703415 117.36914349 C188.41703415 169.17914349 188.41703415 220.98914349 188.41703415 274.36914349 C171.58703415 274.36914349 154.75703415 274.36914349 137.41703415 274.36914349 C137.41703415 257.20914349 137.41703415 240.04914349 137.41703415 222.36914349 C135.76703415 221.70914349 134.11703415 221.04914349 132.41703415 220.36914349 C130.74223702 219.45506746 129.06815786 218.5394341 127.40629196 217.60205364 C105.24597087 205.17532565 79.34455556 201.39358404 54.63578415 208.03711224 C41.04188143 212.1171676 27.72249305 218.82724121 16.41703415 227.36914349 C13.21233849 225.83999937 10.16056986 224.07815766 7.09012985 222.29785442 C-17.10567379 208.37279303 -43.75329444 200.39329402 -71.57710648 207.52099895 C-79.72144683 209.82514558 -88.11891593 212.68198494 -95.37984085 217.05273724 C-97.58296585 218.36914349 -97.58296585 218.36914349 -99.58296585 218.36914349 C-101.29191386 214.95124748 -100.78914916 211.04179741 -100.8212471 207.27929974 C-100.83104095 206.35613461 -100.84083481 205.43296947 -100.85092545 204.48182964 C-101.02186788 184.13372271 -100.99087213 164.3363259 -96.58296585 144.36914349 C-96.36334183 143.3738261 -96.1437178 142.37850872 -95.91743851 141.3530302 C-94.37809499 134.61717672 -92.57226264 127.9850531 -90.58296585 121.36914349 C-90.34271683 120.55526165 -90.1024678 119.74137981 -89.85493851 118.90283489 C-81.10055133 89.90133425 -65.72434873 62.73114184 -46.58296585 39.36914349 C-46.12599319 38.81065716 -45.66902054 38.25217083 -45.19820023 37.67676067 C-34.7797962 25.0238275 -23.58110417 13.39441879 -10.58296585 3.36914349 C-10.01048024 2.84453539 -9.43799464 2.3199273 -8.84816098 1.77942199 C-5.78028337 -0.13059529 -3.60330624 -0.00346917 0 0 Z " fill="#F3B400" transform="translate(100.58296585083008,61.63085651397705)"/>
<path d="M0 0 C161.04 0 322.08 0 488 0 C488 49.7424594 488 49.7424594 483.31640625 54.828125 C482.73761719 55.29734375 482.15882813 55.7665625 481.5625 56.25 C480.98628906 56.72953125 480.41007812 57.2090625 479.81640625 57.703125 C475.42481783 60.83862469 472.40518381 61.22386222 466.95922852 61.11254883 C465.5054191 61.09009053 464.05160733 61.06778423 462.59779358 61.04560852 C461.44550105 61.02268958 461.44550105 61.02268958 460.26992989 60.99930763 C456.17309238 60.92687026 452.07588272 60.91709458 447.97851562 60.89648438 C442.77693619 60.8669768 437.57760667 60.81949563 432.37719727 60.7019043 C428.16358988 60.60827802 423.95369316 60.57965406 419.73911858 60.59229088 C418.14471508 60.58553895 416.55021677 60.55586446 414.95672798 60.50144386 C407.9419922 60.27168643 401.82268793 60.12740152 396.22799683 64.82479858 C393.39799011 67.51825891 390.87268714 70.41934744 388.3829937 73.4256649 C384.80189645 77.50221788 380.26788983 80.68252261 376 84 C375.01773437 84.78761719 374.03546875 85.57523437 373.0234375 86.38671875 C351.19872485 103.75446522 326.41842858 117.09875841 300 126 C298.80576416 126.41088867 298.80576416 126.41088867 297.58740234 126.83007812 C276.99483445 133.81917293 254.94635011 138.08931567 233.171875 138.203125 C232.26855438 138.21013931 231.36523376 138.21715363 230.43453979 138.22438049 C227.53964181 138.24177133 224.64494829 138.24823161 221.75 138.25 C220.26702423 138.25101212 220.26702423 138.25101212 218.75408936 138.25204468 C204.61231501 138.23668535 190.89023858 137.87748822 177 135 C176.15099121 134.83902832 175.30198242 134.67805664 174.42724609 134.51220703 C130.18792696 126.07602253 88.96987768 105.70840593 56 75 C54.62924817 73.80759878 53.25442137 72.61986117 51.875 71.4375 C45.00430352 65.42047723 38.99185 58.96831532 33.28125 51.83984375 C31.80407367 50.00096157 30.3052046 48.17921177 28.78125 46.37890625 C17.18396484 32.63775675 6.69412762 16.73531906 0 0 Z " fill="#E7F2FB" transform="translate(24,363)"/>
<path d="M0 0 C16.83 0 33.66 0 51 0 C51 6.6 51 13.2 51 20 C52.54904022 19.99555878 54.09808044 19.99111755 55.69406128 19.98654175 C70.26241802 19.94607213 84.8307542 19.91593248 99.39915276 19.89637566 C106.88965992 19.8860535 114.38012519 19.87197529 121.87060547 19.84912109 C128.39764945 19.82921589 134.92466309 19.8162904 141.45173657 19.81182301 C144.90927772 19.80921074 148.36673206 19.80305145 151.82424545 19.78853989 C155.67955936 19.77248927 159.53478757 19.77201846 163.39013672 19.77294922 C164.54243774 19.76575867 165.69473877 19.75856812 166.88195801 19.75115967 C167.92806244 19.753909 168.97416687 19.75665833 170.05197144 19.75949097 C171.42083402 19.75672559 171.42083402 19.75672559 172.81735039 19.75390434 C175 20 175 20 177 22 C177 30.25 177 38.5 177 47 C135.42 47 93.84 47 51 47 C51 83.3 51 119.6 51 157 C66.84049391 158.1013527 66.84049391 158.1013527 81 154 C85.23338782 153.38956767 88.94484493 153.54123693 92.875 155.25 C95.7845997 157.64614093 97.76717768 159.59621838 98.3984375 163.40234375 C98.31569116 172.35273973 98.31569116 172.35273973 95 176 C90.6171637 178.88868756 87.20635305 179.56796579 82 179 C81.23147705 178.50781982 80.4629541 178.01563965 79.67114258 177.50854492 C76.50882807 175.7226075 74.43607851 175.57724331 70.82421875 175.48828125 C69.66728516 175.45283203 68.51035156 175.41738281 67.31835938 175.38085938 C65.52108398 175.34702148 65.52108398 175.34702148 63.6875 175.3125 C62.46998047 175.27833984 61.25246094 175.24417969 59.99804688 175.20898438 C56.99901882 175.12665811 53.99952435 175.06164862 51 175 C51 180.94 51 186.88 51 193 C60.59672645 192.91455374 70.19327355 192.82083268 79.78976917 192.71247292 C84.24563791 192.66249138 88.70148272 192.61616156 93.1574707 192.578125 C97.4564035 192.54129558 101.75513704 192.49494213 106.05389977 192.44193649 C107.69533486 192.42338005 109.33681269 192.40827671 110.97831154 192.39665604 C113.27456769 192.37981479 115.57036627 192.35078558 117.86645508 192.31884766 C119.17439529 192.30552399 120.48233551 192.29220032 121.82991028 192.2784729 C125.15731478 192.2416184 125.15731478 192.2416184 128 190 C132.99802641 189.26018886 136.96393533 189.48196767 141.5 191.75 C145.10362232 194.99326009 145.86553058 196.54773027 146.3125 201.375 C145.90226705 206.13370225 144.5630377 209.2566118 141.375 212.8125 C137.77710719 214.6114464 134.01705703 215.31160982 130 215 C129.27903641 214.51021164 128.55807281 214.02042328 127.81526184 213.51579285 C124.23678333 211.589069 121.69503717 211.60217238 117.6394043 211.56762695 C116.91690994 211.5574353 116.19441559 211.54724365 115.45002747 211.53674316 C113.07467835 211.50667805 110.69973293 211.49735746 108.32421875 211.48828125 C106.67225308 211.4714297 105.02030019 211.45327881 103.36836243 211.43388367 C99.02997839 211.38642904 94.69164619 211.35659045 90.35308838 211.33044434 C85.92213707 211.30061584 81.49136431 211.25409339 77.06054688 211.20898438 C68.37377089 211.12300275 59.68701338 211.05717842 51 211 C51 216.94 51 222.88 51 229 C53.866875 228.896875 56.73375 228.79375 59.6875 228.6875 C61.02880981 228.65015747 61.02880981 228.65015747 62.3972168 228.61206055 C67.17686365 228.39175833 69.93778688 227.68409108 74 225 C78.48693151 224.5774294 82.12293688 225.45883339 85.9375 227.8125 C89.00429213 231.06515832 89.86832717 232.83688998 90.375 237.3125 C89.89668461 242.01593465 88.72077302 244.14557155 86 248 C82.96101243 249.97176281 80.5250402 250.27164428 76.9375 250.25 C76.08027344 250.25515625 75.22304688 250.2603125 74.33984375 250.265625 C72 250 72 250 69 248 C66.97457852 247.63648496 66.97457852 247.63648496 64.76953125 247.5859375 C64.04612549 247.55032715 63.32271973 247.5147168 62.57739258 247.47802734 C61.20877075 247.42702881 61.20877075 247.42702881 59.8125 247.375 C56.904375 247.25125 53.99625 247.1275 51 247 C51 255.25 51 263.5 51 272 C98.52 272 146.04 272 195 272 C195 272.33 195 272.66 195 273 C130.65 273 66.3 273 0 273 C0 221.19 0 169.38 0 116 C-16.83 116 -33.66 116 -51 116 C-51 90.59 -51 65.18 -51 39 C-34.17 39 -17.34 39 0 39 C0 26.13 0 13.26 0 0 Z " fill="#B5D9F4" transform="translate(289,63)"/>
<path d="M0 0 C2.33333333 1 4.66666667 2 7 3 C13.19753857 3.86322859 17.30603114 2.53065283 23 0 C28.24921734 -0.55254919 31.55699261 0.13672857 36 3 C39.49922057 6.85901946 41.60900269 10.97028474 43.8125 15.625 C48.8069585 25.83708108 54.27187901 34.64996182 62.1796875 42.90625 C64 45 64 45 65 48 C72.9252602 43.16947397 80.2068336 38.33741527 86.9140625 31.84765625 C89.83162291 29.26337522 92.01373674 28.12864303 95.875 27.625 C101.65421955 28.31850635 105.05358855 32.02430712 109.1875 35.8125 C116.07114282 42.04608549 123.9652932 46.40873897 132 51 C132.33 38.13 132.66 25.26 133 12 C149.83 12 166.66 12 184 12 C184 63.81 184 115.62 184 169 C167.17 169 150.34 169 133 169 C133 151.84 133 134.68 133 117 C131.35 116.34 129.7 115.68 128 115 C126.32520287 114.08592398 124.65112371 113.17029062 122.98925781 112.23291016 C100.82893672 99.80618217 74.92752141 96.02444055 50.21875 102.66796875 C36.62484728 106.74802412 23.3054589 113.45809772 12 122 C8.79530434 120.47085588 5.74353571 118.70901417 2.6730957 116.92871094 C-21.52270794 103.00364955 -48.17032859 95.02415053 -75.99414062 102.15185547 C-84.13848098 104.4560021 -92.53595007 107.31284146 -99.796875 111.68359375 C-102 113 -102 113 -104 113 C-107.62677531 105.74644938 -106.66303921 93.70780214 -105 86 C-102.38677443 81.18857637 -97.48379879 79.23945631 -92.64648438 77.15478516 C-89.59789518 75.82454282 -86.64241212 74.35180819 -83.671875 72.85546875 C-80.26463178 71.13950206 -76.85638916 69.42836612 -73.43164062 67.74755859 C-49.43524775 55.94152896 -31.61811532 38.2719041 -20.0859375 14.06640625 C-19.63456421 13.12039551 -19.63456421 13.12039551 -19.17407227 12.15527344 C-18.36330752 10.42116965 -17.58104771 8.67382006 -16.80078125 6.92578125 C-12.70471314 0.27078123 -7.28790813 -1.11431987 0 0 Z " fill="#B1603B" transform="translate(105,167)"/>
<path d="M0 0 C118.14 0 236.28 0 358 0 C350.53424248 8.71005044 342.98088036 15.87844253 334 23 C333.01 23.79535156 332.02 24.59070313 331 25.41015625 C309.08319528 42.69703597 284.45797407 56.08543422 258 65 C256.80576416 65.41088867 256.80576416 65.41088867 255.58740234 65.83007812 C234.99483445 72.81917293 212.94635011 77.08931567 191.171875 77.203125 C189.81689407 77.21364647 189.81689407 77.21364647 188.43453979 77.22438049 C185.53964181 77.24177133 182.64494829 77.24823161 179.75 77.25 C178.26702423 77.25101212 178.26702423 77.25101212 176.75408936 77.25204468 C162.61231501 77.23668535 148.89023858 76.87748822 135 74 C134.15099121 73.83902832 133.30198242 73.67805664 132.42724609 73.51220703 C89.55061277 65.3358789 48.24588677 45.88710933 16.171875 16.01953125 C13.51907833 13.55281204 10.7627491 11.22194504 7.984375 8.8984375 C5.10478856 6.14355756 2.59349806 3.02574774 0 0 Z " fill="#B6DBF5" transform="translate(66,424)"/>
<path d="M0 0 C0.95390625 0.56074219 1.9078125 1.12148438 2.890625 1.69921875 C3.55191406 2.18519531 4.21320313 2.67117188 4.89453125 3.171875 C7.10482184 3.9957422 7.10482184 3.9957422 9.74609375 2.20703125 C10.8647746 1.42407346 11.97492096 0.62883703 13.078125 -0.17578125 C25.36672468 -8.56349725 38.32920701 -14.22148497 52.890625 -17.30078125 C54.24607422 -17.58888672 54.24607422 -17.58888672 55.62890625 -17.8828125 C68.91766887 -19.58568388 83.05149409 -19.2124575 95.890625 -15.30078125 C97.02242187 -14.96046875 98.15421875 -14.62015625 99.3203125 -14.26953125 C109.41551847 -10.94193552 119.04113616 -6.20044048 127.890625 -0.30078125 C127.890625 16.85921875 127.890625 34.01921875 127.890625 51.69921875 C53.640625 51.69921875 -20.609375 51.69921875 -97.109375 51.69921875 C-101.61462894 40.4360839 -101.61462894 40.4360839 -102.7421875 35.7109375 C-102.9901709 34.680896 -103.2381543 33.65085449 -103.49365234 32.58959961 C-103.73809082 31.53264893 -103.9825293 30.47569824 -104.234375 29.38671875 C-104.49299316 28.28529541 -104.75161133 27.18387207 -105.01806641 26.04907227 C-107.36945023 15.87252978 -109.22113291 6.17093456 -109.109375 -4.30078125 C-72.01666044 -24.41970987 -35.78939672 -21.18232899 0 0 Z " fill="#06D9F6" transform="translate(110.109375,284.30078125)"/>
<path d="M0 0 C41.58 0 83.16 0 126 0 C126.04125 13.81875 126.0825 27.6375 126.125 41.875 C126.14320801 46.24218262 126.16141602 50.60936523 126.18017578 55.10888672 C126.18920898 60.43188477 126.18920898 60.43188477 126.19088745 62.92190552 C126.19396347 64.66516133 126.20100755 66.40841283 126.21115112 68.15164185 C126.22573079 70.7885073 126.22781402 73.42511217 126.22705078 76.06201172 C126.234247 76.84175795 126.24144321 77.62150417 126.2488575 78.42487907 C126.22805267 83.77194733 126.22805267 83.77194733 124 86 C121.81735039 86.24609566 121.81735039 86.24609566 119.05197144 86.24050903 C117.48281479 86.24463303 117.48281479 86.24463303 115.88195801 86.24884033 C114.72965698 86.24164978 113.57735596 86.23445923 112.39013672 86.22705078 C110.57553452 86.22748886 110.57553452 86.22748886 108.72427368 86.22793579 C105.40208714 86.2267791 102.08014749 86.21673127 98.75800467 86.20278788 C95.28798744 86.19030678 91.81796712 86.18911209 88.34793091 86.18673706 C81.77476213 86.18051456 75.20165967 86.16409338 68.62852013 86.14403808 C60.41251573 86.11951303 52.19650061 86.1085476 43.98046875 86.09765625 C29.3202608 86.07816228 14.66019763 86.03810043 0 86 C0 57.62 0 29.24 0 0 Z " fill="#B7DBF6" transform="translate(340,110)"/>
<path d="M0 0 C1.27039627 -0.00563965 2.54079254 -0.0112793 3.84968567 -0.01708984 C5.26547298 -0.01320088 6.68125973 -0.00910452 8.0970459 -0.00482178 C9.58176343 -0.00753056 11.06647961 -0.01109086 12.55119324 -0.01544189 C16.59036981 -0.02458158 20.62944455 -0.02101518 24.66862297 -0.01468372 C28.88911088 -0.00963188 33.10958988 -0.0143129 37.33007812 -0.01745605 C44.41859508 -0.02109809 51.50707041 -0.0162904 58.59558105 -0.0067749 C66.79921063 0.00411011 75.0027408 0.0005847 83.20636797 -0.01042771 C90.2407849 -0.01949385 97.27517184 -0.02078917 104.30959272 -0.01555037 C108.51490884 -0.01242696 112.72017819 -0.01203148 116.92549133 -0.01862335 C120.87842796 -0.02438643 124.83123602 -0.02041909 128.78415871 -0.00883484 C130.23784483 -0.00618267 131.69154172 -0.0069628 133.14522362 -0.01136017 C135.12374875 -0.0167949 137.10229744 -0.00878318 139.08081055 0 C140.18989525 0.00075405 141.29897995 0.0015081 142.44167328 0.002285 C145.04040527 0.25396729 145.04040527 0.25396729 147.04040527 2.25396729 C147.04040527 10.50396729 147.04040527 18.75396729 147.04040527 27.25396729 C105.46040527 27.25396729 63.88040527 27.25396729 21.04040527 27.25396729 C21.04040527 55.63396729 21.04040527 84.01396729 21.04040527 113.25396729 C12.13040527 113.25396729 3.22040527 113.25396729 -5.95959473 113.25396729 C-8.39379667 110.81976534 -8.21041707 110.2227768 -8.21356201 106.88885498 C-8.21920166 105.97185318 -8.22484131 105.05485138 -8.23065186 104.11006165 C-8.22660339 103.10116379 -8.22255493 102.09226593 -8.21838379 101.05279541 C-8.22188843 99.99257675 -8.22539307 98.93235809 -8.22900391 97.8400116 C-8.23783471 94.32168099 -8.23196725 90.80355008 -8.22521973 87.28521729 C-8.22656599 84.84905966 -8.22850619 82.4129023 -8.23101807 79.97674561 C-8.23397116 74.86551359 -8.22966569 69.75435136 -8.22033691 64.64312744 C-8.20894234 58.07873225 -8.21550081 51.51450058 -8.22748184 44.95011139 C-8.23469541 39.91795613 -8.23241482 34.88583988 -8.22722626 29.85368347 C-8.22588837 27.43267294 -8.22754232 25.01165891 -8.23218536 22.59065247 C-8.2372423 19.21205203 -8.22955196 15.83371954 -8.21838379 12.45513916 C-8.22243225 11.4462413 -8.22648071 10.43734344 -8.23065186 9.39787292 C-8.22501221 8.48087112 -8.21937256 7.56386932 -8.21356201 6.61907959 C-8.21280796 5.81971733 -8.21205391 5.02035507 -8.21127701 4.19676971 C-7.58765272 -0.61715193 -3.95046307 0.00268586 0 0 Z " fill="#97CBEF" transform="translate(318.9595947265625,82.74603271484375)"/>
<path d="M0 0 C0.34144962 15.48982209 0.63037201 30.97997248 0.85746098 46.47186184 C0.96412697 53.66578149 1.08770972 60.85865377 1.25170898 68.05151367 C1.39467563 74.32381279 1.50530091 80.59572484 1.5777635 86.86924893 C1.61721999 90.18893469 1.67721665 93.50614278 1.76637459 96.82491875 C1.86338416 100.53826432 1.90317895 104.24822072 1.92993164 107.96264648 C1.97163986 109.05237762 2.01334808 110.14210876 2.05632019 111.26486206 C2.0321897 117.49633156 1.07820681 120.59120917 -3.36231995 125.08705139 C-4.88044247 126.42358834 -6.42410264 127.73209838 -8 129 C-8.55085235 129.47233787 -9.10170469 129.94467573 -9.66924953 130.43132687 C-19.45129169 138.54004286 -31.08037577 143.90096926 -42.32714844 149.62207031 C-45.97310033 151.50166042 -49.56181251 153.46851275 -53.125 155.5 C-54.15882812 156.0878125 -55.19265625 156.675625 -56.2578125 157.28125 C-59.0788195 158.97294578 -59.0788195 158.97294578 -61.7421875 161.21875 C-64 163 -64 163 -66 163 C-66.98261249 139.06246795 -62.87939582 115.87917074 -56 93 C-55.75975098 92.18611816 -55.51950195 91.37223633 -55.27197266 90.53369141 C-45.40422072 57.84384021 -27.09143951 25.29912434 -3 1 C-1 0 -1 0 0 0 Z " fill="#F19B00" transform="translate(66,90)"/>
<path d="M0 0 C40.59 0 81.18 0 123 0 C115.53424248 8.71005044 107.98088036 15.87844253 99 23 C98.01 23.79535156 97.02 24.59070313 96 25.41015625 C74.06787709 42.70911819 49.45610801 56.02862557 23 65 C22.30825684 65.2357373 21.61651367 65.47147461 20.90380859 65.71435547 C11.12504647 69 11.12504647 69 6 69 C0.94002604 59.10005096 1.7913936 47.49713538 1.39453125 36.60546875 C1.21361052 31.9951094 0.96083245 27.43189901 0.46875 22.84375 C-0.14021804 15.25194841 0 7.61618628 0 0 Z " fill="#C1D629" transform="translate(301,424)"/>
<path d="M0 0 C3.13403847 1.10166201 6.0660014 2.44629862 9 4 C3.963278 34.6842406 -4.91369404 66.70580661 -28.48046875 88.42578125 C-30.99792576 90.80808251 -30.99792576 90.80808251 -32.40527344 93.28344727 C-36.46685891 99.64073859 -36.46685891 99.64073859 -40.81616211 100.65991211 C-44.20593987 100.74355564 -47.49458129 100.5753798 -50.875 100.3125 C-68.20602727 99.64199573 -84.68324227 102.58586232 -99.796875 111.68359375 C-102 113 -102 113 -104 113 C-107.62677531 105.74644938 -106.66303921 93.70780214 -105 86 C-102.38677443 81.18857637 -97.48379879 79.23945631 -92.64648438 77.15478516 C-89.59789518 75.82454282 -86.64241212 74.35180819 -83.671875 72.85546875 C-80.26463178 71.13950206 -76.85638916 69.42836612 -73.43164062 67.74755859 C-49.43524775 55.94152896 -31.61811532 38.2719041 -20.0859375 14.06640625 C-19.63456421 13.12039551 -19.63456421 13.12039551 -19.17407227 12.15527344 C-18.36330752 10.42116965 -17.58104771 8.67382006 -16.80078125 6.92578125 C-12.73105032 0.313572 -7.26032927 -1.23378144 0 0 Z " fill="#A54F2D" transform="translate(105,167)"/>
<path d="M0 0 C36.96 0 73.92 0 112 0 C109 55 109 55 107 65 C102.12763412 66.21809147 99.32309998 65.03441405 94.8125 63.3125 C93.98878906 63.00143311 93.16507812 62.69036621 92.31640625 62.36987305 C64.43827232 51.53668177 38.13313439 36.47003286 16.171875 16.01953125 C13.51907833 13.55281204 10.7627491 11.22194504 7.984375 8.8984375 C5.10478856 6.14355756 2.59349806 3.02574774 0 0 Z " fill="#C1D629" transform="translate(66,424)"/>
<path d="M0 0 C0.98033203 -0.00386719 1.96066406 -0.00773437 2.97070312 -0.01171875 C3.92009766 -0.01042969 4.86949219 -0.00914062 5.84765625 -0.0078125 C7.13361694 -0.00612061 7.13361694 -0.00612061 8.44555664 -0.00439453 C10.9375 0.125 10.9375 0.125 15.9375 1.125 C15.6075 23.565 15.2775 46.005 14.9375 69.125 C71.6975 69.125 128.4575 69.125 186.9375 69.125 C186.9375 69.455 186.9375 69.785 186.9375 70.125 C112.6875 70.125 38.4375 70.125 -38.0625 70.125 C-42.56775394 58.86186515 -42.56775394 58.86186515 -43.6953125 54.13671875 C-43.9432959 53.10667725 -44.1912793 52.07663574 -44.44677734 51.01538086 C-44.69121582 49.95843018 -44.9356543 48.90147949 -45.1875 47.8125 C-45.44611816 46.71107666 -45.70473633 45.60965332 -45.97119141 44.47485352 C-48.32257523 34.29831103 -50.17425791 24.59671581 -50.0625 14.125 C-33.98022843 5.40204516 -18.47367819 -0.07316308 0 0 Z " fill="#05B5E0" transform="translate(51.0625,265.875)"/>
<path d="M0 0 C40.59 0 81.18 0 123 0 C125.32142857 32.5 125.32142857 32.5 125 44 C124.26007813 43.23171875 123.52015625 42.4634375 122.7578125 41.671875 C120.50090788 39.48529885 118.53865988 37.85864166 115.875 36.25 C115.21242188 35.84265625 114.54984375 35.4353125 113.8671875 35.015625 C109.41875009 32.59597285 105.09196012 32.84530517 100.17333984 32.83886719 C99.27052277 32.83390228 98.36770569 32.82893738 97.43753052 32.82382202 C94.44532512 32.80919696 91.4531728 32.80239645 88.4609375 32.796875 C86.37928262 32.79112213 84.29762775 32.78536441 82.2159729 32.77960205 C77.84629062 32.76908992 73.47662674 32.7632492 69.10693359 32.75976562 C63.52184184 32.75429223 57.93699527 32.73028974 52.35198021 32.70179367 C48.04870915 32.68311699 43.74549642 32.67795893 39.44218826 32.67642975 C37.38420909 32.6734121 35.32623072 32.6654137 33.26829147 32.65224457 C30.37968401 32.63508525 27.49166586 32.63708885 24.60302734 32.64355469 C23.76112854 32.6343399 22.91922974 32.62512512 22.05181885 32.6156311 C14.88042492 32.66561889 7.42631595 33.93474441 2.0625 39.0625 C1.51722656 39.56910156 0.97195312 40.07570313 0.41015625 40.59765625 C-0.72841071 41.72991536 -1.86458259 42.86458259 -3 44 C-3.15216437 35.31535971 -2.68079467 26.72301046 -2.0625 18.0625 C-1.97548828 16.76248047 -1.88847656 15.46246094 -1.79882812 14.12304688 C-1.12743965 4.50975861 -1.12743965 4.50975861 0 0 Z " fill="#97CBEE" transform="translate(178,424)"/>
<path d="M0 0 C1.13179688 0.3403125 2.26359375 0.680625 3.4296875 1.03125 C13.52489347 4.35884573 23.15051116 9.10034077 32 15 C32.97147513 18.46243702 32.90036286 21.52717181 32 25 C29.45746834 27.84165303 26.38405618 29.31521311 23 31 C22.10667969 31.50144531 21.21335937 32.00289063 20.29296875 32.51953125 C-2.70966628 44.94913568 -27.7928484 46.53513169 -52.81640625 40.00390625 C-66.14008267 35.92061623 -78.73496568 29.18399929 -90 21 C-68.86408924 -1.66522527 -28.68335534 -8.73890924 0 0 Z " fill="#07A3D2" transform="translate(206,269)"/>
<path d="M0 0 C16.83 0 33.66 0 51 0 C51 25.74 51 51.48 51 78 C34.17 78 17.34 78 0 78 C0 52.26 0 26.52 0 0 Z " fill="#F1B301" transform="translate(238,258)"/>
<path d="M0 0 C16.83 0 33.66 0 51 0 C51 25.74 51 51.48 51 78 C34.17 78 17.34 78 0 78 C0 52.26 0 26.52 0 0 Z " fill="#DF3980" transform="translate(238,179)"/>
<path d="M0 0 C16.83 0 33.66 0 51 0 C51 25.41 51 50.82 51 77 C34.17 77 17.34 77 0 77 C0 51.59 0 26.18 0 0 Z " fill="#05B7E1" transform="translate(238,102)"/>
<path d="M0 0 C0.97055328 0.00215515 1.94110657 0.0043103 2.94107056 0.00653076 C17.26930898 0.0575666 31.29685782 0.40491562 45.375 3.3125 C46.35807129 3.51117676 47.34114258 3.70985352 48.35400391 3.91455078 C68.35561214 8.07441166 88.1068017 14.05567783 106.375 23.3125 C106.375 23.6425 106.375 23.9725 106.375 24.3125 C36.415 24.3125 -33.545 24.3125 -105.625 24.3125 C-101.42921524 21.16566143 -97.63675741 19.47163442 -92.8125 17.5625 C-91.49765625 17.04187988 -91.49765625 17.04187988 -90.15625 16.51074219 C-76.53230425 11.23122301 -62.57314383 6.91767745 -48.25 4 C-47.52748047 3.85272461 -46.80496094 3.70544922 -46.06054688 3.55371094 C-30.72941368 0.65963761 -15.56727809 -0.06228976 0 0 Z " fill="#C1D628" transform="translate(244.625,10.6875)"/>
<path d="M0 0 C9.57 0 19.14 0 29 0 C29 28.38 29 56.76 29 86 C20.09 86 11.18 86 2 86 C-0.53562284 83.46437716 -0.23544304 81.87794258 -0.24884033 78.42041016 C-0.2380545 77.25300293 -0.2380545 77.25300293 -0.22705078 76.06201172 C-0.22734283 75.24241974 -0.22763489 74.42282776 -0.22793579 73.57839966 C-0.22653944 70.86205557 -0.21096401 68.14598382 -0.1953125 65.4296875 C-0.19158345 63.54924672 -0.18873597 61.66880401 -0.18673706 59.7883606 C-0.17909207 54.83334002 -0.15943619 49.87843626 -0.1373291 44.92346191 C-0.11688928 39.8695636 -0.10773934 34.81564646 -0.09765625 29.76171875 C-0.07619107 19.84108619 -0.04100192 9.92057107 0 0 Z " fill="#97CBEF" transform="translate(311,110)"/>
<path d="M0 0 C3.24168949 1.62084474 5.19736744 2.94198435 7.375 5.8125 C8.65727049 10.30044672 8.41817382 13.91274806 6.75 18.25 C4.50487068 21.77806037 3.05608649 23.50237306 -1.08203125 24.50390625 C-7.31964111 25.48661427 -7.31964111 25.48661427 -10.08068848 23.51182556 C-14.12121331 21.41935661 -17.54013044 21.59007074 -22.02539062 21.63110352 C-23.37506172 21.6254538 -23.37506172 21.6254538 -24.7519989 21.61968994 C-26.70100361 21.6132658 -28.65003967 21.61357968 -30.5990448 21.61987495 C-33.68428478 21.62898907 -36.76891757 21.61875798 -39.85412598 21.60325623 C-48.62393257 21.56316148 -57.39369122 21.56195638 -66.16357422 21.56420898 C-71.5316488 21.56426006 -76.89939511 21.54510741 -82.26737976 21.51487541 C-85.30594988 21.50404103 -88.34389612 21.51618533 -91.38244629 21.52870178 C-93.24650695 21.51979822 -95.11056251 21.50972413 -96.97460938 21.49829102 C-97.81839645 21.50803452 -98.66218353 21.51777802 -99.53153992 21.52781677 C-103.55289577 21.47857663 -105.52456369 21.30192352 -109.00158691 19.09385681 C-111.38773718 16.59374459 -111.93083394 15.62249456 -112.3125 12.1875 C-111.92835642 8.2692355 -110.70743683 6.78706733 -108 4 C-104.67340608 2.33670304 -100.94209485 2.83756355 -97.28344727 2.82641602 C-96.38089203 2.819729 -95.47833679 2.81304199 -94.5484314 2.80615234 C-92.58463972 2.79208308 -90.62083151 2.78019503 -88.65701485 2.77020454 C-85.55171323 2.75382877 -82.44653438 2.73059305 -79.34129333 2.70530701 C-70.51103807 2.6344315 -61.68073289 2.57434953 -52.8503418 2.52319336 C-47.45336996 2.49144611 -42.0565392 2.45018216 -36.65968132 2.40299797 C-34.59957345 2.38695299 -32.53943307 2.37464301 -30.47928047 2.36609077 C-27.60135657 2.3539708 -24.72376588 2.32983538 -21.84594727 2.30297852 C-20.56241112 2.3020948 -20.56241112 2.3020948 -19.25294495 2.30119324 C-12.16588574 2.21331531 -7.40515977 -0.94435941 0 0 Z " fill="#F8CF08" transform="translate(427,253)"/>
<path d="M0 0 C3.93493962 2.09863447 6.90850106 4.80772339 10.1875 7.8125 C15.50950887 12.63277066 21.50157546 16.85714566 28.00291443 19.95410156 C33.5763639 22.84728625 33.5763639 22.84728625 34.70387268 25.91523743 C34.92647635 28.24734793 34.90169821 30.46140662 34.78125 32.80078125 C34.77319336 33.54275757 34.76513672 34.28473389 34.75683594 35.04919434 C34.71516987 37.80464471 34.60347293 40.5586779 34.5 43.3125 C34.335 49.479375 34.17 55.64625 34 62 C50.83 62 67.66 62 85 62 C85 62.33 85 62.66 85 63 C77.77800077 63.20388916 70.55675094 63.34337344 63.33251953 63.43945312 C60.87846137 63.47952993 58.42459238 63.53400861 55.97119141 63.60351562 C52.43083923 63.70125982 48.89302405 63.7460866 45.3515625 63.78125 C43.722827 63.84318542 43.722827 63.84318542 42.06118774 63.90637207 C33.33951674 63.91143785 29.25879907 60.76923376 23 55 C20.38779867 53.19051907 17.69349702 51.57989444 14.9375 50 C14.21852539 49.58049072 13.49955078 49.16098145 12.75878906 48.72875977 C7.7104181 45.83653246 2.55008623 43.32986666 -2.75 40.9375 C-13.36771747 36.13014141 -24.05897009 29.66076072 -32 21 C-32 20.34 -32 19.68 -32 19 C-30.252731 17.74809077 -28.44903722 16.57465167 -26.625 15.4375 C-21.31268775 12.00270709 -16.7390804 8.26705358 -12.15625 3.8828125 C-8.2314162 0.45569313 -5.2327293 -0.62792752 0 0 Z " fill="#A7512D" transform="translate(204,195)"/>
<path d="M0 0 C11.17991326 5.42154778 11.17991326 5.42154778 12.66235352 9.31054688 C12.75396382 15.845415 12.75396382 15.845415 10.15454102 18.71679688 C7.7714488 20.35761447 5.35003269 21.65389005 2.76000977 22.94335938 C1.86668945 23.44480469 0.97336914 23.94625 0.05297852 24.46289062 C-9.63078966 29.69556973 -21.18575237 34.13869528 -32.23999023 34.94335938 C-38.07057264 32.97592208 -42.88706844 27.98342017 -46.23999023 22.94335938 C-49.06767263 17.1222339 -49.0716436 11.28011644 -48.23999023 4.94335938 C-45.9893023 -0.99172874 -42.41459277 -5.54219258 -37.34155273 -9.31445312 C-25.5571153 -13.4762433 -10.50860494 -4.93951741 0 0 Z " fill="#05B7E1" transform="translate(226.239990234375,277.056640625)"/>
<path d="M0 0 C10.89 0 21.78 0 33 0 C33 25.41 33 50.82 33 77 C22.11 77 11.22 77 0 77 C3 75 3 75 5.4375 73.8125 C9.40048726 71.00941145 10.84849124 67.30301752 13 63 C13.76701215 56.12203859 13.14838884 51.5675745 9 46 C5.07284882 42.0523415 1.58982334 39.97841175 -4.01171875 39.68359375 C-5.14770508 39.62075195 -5.14770508 39.62075195 -6.30664062 39.55664062 C-7.09232422 39.51732422 -7.87800781 39.47800781 -8.6875 39.4375 C-9.88342773 39.37272461 -9.88342773 39.37272461 -11.10351562 39.30664062 C-13.06881447 39.20072632 -15.03438496 39.09987449 -17 39 C-17 38.67 -17 38.34 -17 38 C-15.865625 37.97421875 -14.73125 37.9484375 -13.5625 37.921875 C-2.13421467 37.73287347 -2.13421467 37.73287347 8 33 C12.82853742 26.93337606 13.81780822 21.56760567 13 14 C10.77676125 7.38110065 5.58708379 3.72472253 0 0 Z " fill="#07A3D3" transform="translate(256,102)"/>
<path d="M0 0 C5.75795052 3.82898887 9.28370999 8.95063497 11.33203125 15.55078125 C12.32387277 22.21203788 11.01793482 27.91412092 7.33203125 33.55078125 C2.74619515 38.5770108 -1.78290808 42.0212317 -8.6484375 42.95703125 C-16.78759952 43.19496047 -22.46716729 42.0356615 -28.66796875 36.55078125 C-34.46924573 29.43651318 -35.47040292 22.57243399 -34.66796875 13.55078125 C-32.95357788 7.32320476 -29.00165535 3.03777392 -23.66796875 -0.44921875 C-15.29707711 -4.89468225 -8.20058776 -4.47190269 0 0 Z " fill="#F8CE02" transform="translate(188.66796875,112.44921875)"/>
<path d="M0 0 C13.86 0 27.72 0 42 0 C42.02578125 3.2278125 42.0515625 6.455625 42.078125 9.78125 C42.11659514 12.92554245 42.16173947 16.06967367 42.20751953 19.21386719 C42.23565367 21.39022049 42.2569056 23.56667453 42.27099609 25.74316406 C42.29253006 28.88138118 42.33923506 32.01839663 42.390625 35.15625 C42.39185364 36.12115356 42.39308228 37.08605713 42.39434814 38.0802002 C42.5417184 44.95858278 43.7938938 50.81457835 48.81640625 55.8046875 C49.39261719 56.15789062 49.96882813 56.51109375 50.5625 56.875 C51.14128906 57.24367188 51.72007813 57.61234375 52.31640625 57.9921875 C52.87199219 58.32476562 53.42757812 58.65734375 54 59 C54.99 59.66 55.98 60.32 57 61 C44.26157531 63.03685471 44.26157531 63.03685471 39.29003906 59.93212891 C35.81825281 56.80221071 33.17702451 53.0112083 30.53027344 49.18164062 C28.9445097 46.92089003 27.27443104 44.75080485 25.5703125 42.578125 C15.36117343 29.41367197 6.56897406 15.32760613 0 0 Z " fill="#B8DBF6" transform="translate(24,363)"/>
<path d="M0 0 C3.76877031 1.63859579 5.81954834 3.55170145 8 7 C8.74383684 11.4848986 8.49961639 15.69544611 6.875 19.9375 C3.5259464 23.62145896 0.34841842 24.85806122 -4.5625 25.375 C-8 25 -8 25 -10.06640625 23.49755859 C-14.44074056 21.26452209 -18.5336234 21.61741361 -23.375 21.6640625 C-25.43229484 21.65155382 -27.48958653 21.63851688 -29.546875 21.625 C-32.77940985 21.62106508 -36.01163505 21.62505254 -39.24414062 21.63964844 C-42.37156339 21.64821411 -45.49769125 21.62654854 -48.625 21.6015625 C-49.58970215 21.61490631 -50.5544043 21.62825012 -51.54833984 21.64199829 C-56.16261907 21.59118409 -58.32000423 21.5064774 -62.11328125 18.68115234 C-64.60076307 15.14627588 -64.68139047 13.23976293 -64 9 C-61.86320715 5.61060444 -60.8225233 4.27417443 -57 3 C-55.52792526 2.89599663 -54.05180733 2.84432578 -52.57617188 2.82641602 C-51.68514771 2.81292618 -50.79412354 2.79943634 -49.87609863 2.78553772 C-48.91667358 2.77509933 -47.95724854 2.76466095 -46.96875 2.75390625 C-44.94140175 2.72097931 -42.9140581 2.68776748 -40.88671875 2.65429688 C-37.68704278 2.6068013 -34.48738704 2.56234567 -31.28759766 2.52319336 C-28.20195383 2.4835608 -25.11668725 2.43200741 -22.03125 2.37890625 C-21.07182495 2.3704921 -20.1123999 2.36207794 -19.12390137 2.35340881 C-18.2328772 2.33676682 -17.34185303 2.32012482 -16.42382812 2.30297852 C-15.64011841 2.29267105 -14.85640869 2.28236359 -14.0489502 2.27174377 C-8.70521291 1.56302604 -5.93932902 -0.67967674 0 0 Z " fill="#ED518E" transform="translate(379,217)"/>
<path d="M0 0 C128.7 0 257.4 0 390 0 C390 0.33 390 0.66 390 1 C325.65 1 261.3 1 195 1 C195 13.87 195 26.74 195 40 C178.5 40 162 40 145 40 C145 39.67 145 39.34 145 39 C146.21816406 38.97421875 147.43632812 38.9484375 148.69140625 38.921875 C150.31513835 38.86556059 151.93883489 38.80821403 153.5625 38.75 C154.76229492 38.72873047 154.76229492 38.72873047 155.98632812 38.70703125 C161.75214595 38.47169175 165.2736489 37.36216802 170 34 C174.19818586 28.9944707 175.41896535 23.38922157 175 17 C173.63791476 10.52697105 170.49998622 6.61249095 165 3 C161.6238439 1.87461463 159.04922166 1.86105534 155.48908997 1.84178162 C154.82499121 1.83684364 154.16089245 1.83190566 153.47666949 1.82681805 C151.24722555 1.81143702 149.01781043 1.80308081 146.78833008 1.79467773 C145.19184617 1.78509968 143.5953648 1.77508965 141.99888611 1.76467896 C137.66037538 1.73761591 133.32185376 1.71661392 128.98330522 1.69667697 C124.45090128 1.67482606 119.91853098 1.64743299 115.38615417 1.62062073 C106.801442 1.57068174 98.21671117 1.52574738 89.63196248 1.48259836 C79.85938435 1.4332363 70.08683996 1.37831435 60.31429446 1.32291877 C40.20956107 1.20908021 20.10479547 1.10224524 0 1 C0 0.67 0 0.34 0 0 Z " fill="#7BA03D" transform="translate(94,62)"/>
<path d="M0 0 C17.49 0 34.98 0 53 0 C53 8.58 53 17.16 53 26 C38.81 26 24.62 26 10 26 C8.535625 22.638125 7.07125 19.27625 5.5625 15.8125 C5.10174072 14.76167236 4.64098145 13.71084473 4.16625977 12.62817383 C3.80330811 11.78794678 3.44035645 10.94771973 3.06640625 10.08203125 C2.69459229 9.22843018 2.32277832 8.3748291 1.93969727 7.49536133 C1 5 1 5 0 0 Z " fill="#012481" transform="translate(13,336)"/>
<path d="M0 0 C3.90487585 1.04885957 6.14353639 3.18501007 8.46484375 6.390625 C9.66908039 10.22228704 9.87811877 13.72253526 8.39453125 17.515625 C6.48685665 21.12067936 4.94884805 23.15358389 1.15234375 24.578125 C-1.3203125 24.84375 -1.3203125 24.84375 -3.91015625 24.828125 C-4.76738281 24.83328125 -5.62460937 24.8384375 -6.5078125 24.84375 C-8.84765625 24.578125 -8.84765625 24.578125 -11.84765625 22.578125 C-14.61529144 22.3848967 -17.2906793 22.30114114 -20.05859375 22.3046875 C-21.71224633 22.28439665 -23.36589211 22.26354583 -25.01953125 22.2421875 C-27.62212865 22.21959892 -30.22445755 22.20312095 -32.82714844 22.19726562 C-35.34228866 22.18772774 -37.85622423 22.15393505 -40.37109375 22.1171875 C-41.14520599 22.12223297 -41.91931824 22.12727844 -42.71688843 22.13247681 C-47.71641063 22.04172925 -50.34956874 21.17704616 -53.84765625 17.578125 C-55.27427844 14.72488063 -55.15799493 12.74357951 -54.84765625 9.578125 C-53.04771851 6.87821838 -51.76388325 5.0362385 -48.84765625 3.578125 C-46.13652659 3.45748094 -43.44667096 3.39246876 -40.734375 3.3671875 C-39.07746417 3.33911356 -37.42056326 3.31044906 -35.76367188 3.28125 C-33.15014987 3.24002648 -30.53681201 3.20314171 -27.9230957 3.17675781 C-25.40146544 3.14909214 -22.88067866 3.10321604 -20.359375 3.0546875 C-19.5821257 3.05143463 -18.8048764 3.04818176 -18.0040741 3.04483032 C-10.95702002 2.88576334 -7.04103822 -1.07782948 0 0 Z " fill="#BFD532" transform="translate(369.84765625,288.421875)"/>
<path d="M0 0 C22.10391625 1.22799535 22.10391625 1.22799535 27.83984375 6.78125 C28.20207031 7.3484375 28.56429688 7.915625 28.9375 8.5 C29.31777344 9.0671875 29.69804687 9.634375 30.08984375 10.21875 C32.46369119 14.86456301 32.48916456 19.89490078 32 25 C29.30881994 32.36533491 24.90119852 35.54940074 18 39 C12.06 39 6.12 39 0 39 C0 26.13 0 13.26 0 0 Z " fill="#EE4989" transform="translate(238,218)"/>
<path d="M0 0 C21.56514085 0 21.56514085 0 26.3984375 4.1015625 C30.76295726 9.27511519 32.79245492 15.01890791 32.44921875 21.80078125 C31.07642157 28.52151876 26.38448972 33.1372139 21 37 C14.35169194 39.21610269 7.00793201 38 0 38 C0 25.46 0 12.92 0 0 Z " fill="#F8CD00" transform="translate(238,297)"/>
<path d="M0 0 C20.77620968 0 20.77620968 0 26.08203125 4.9375 C26.65308594 5.618125 27.22414063 6.29875 27.8125 7 C28.68841797 8.0209375 28.68841797 8.0209375 29.58203125 9.0625 C32.84658351 13.52315542 32.45442793 18.71211132 32 24 C29.36015001 31.36379208 24.87468048 34.56265976 18 38 C12.06 38 6.12 38 0 38 C0 25.46 0 12.92 0 0 Z " fill="#06D9F6" transform="translate(238,141)"/>
<path d="M0 0 C20.60048426 0 20.60048426 0 25.828125 4.61328125 C30.67223368 10.40225728 32.67658208 15.28696424 32 23 C29.5208246 30.5680091 25.7396173 33.95622962 19 38 C9.595 38.495 9.595 38.495 0 39 C0 26.13 0 13.26 0 0 Z " fill="#C0D528" transform="translate(238,63)"/>
<path d="M0 0 C10.56 0 21.12 0 32 0 C32 12.54 32 25.08 32 38 C28.39831541 38.72033692 25.76718929 39.12332559 22.2097168 39.11352539 C20.82885139 39.11341209 20.82885139 39.11341209 19.42008972 39.11329651 C17.94950859 39.10555458 17.94950859 39.10555458 16.44921875 39.09765625 C15.43527542 39.0962413 14.42133209 39.09482635 13.37666321 39.09336853 C10.14691179 39.08778328 6.91723038 39.07523345 3.6875 39.0625 C1.49414163 39.0574831 -0.69921783 39.05292052 -2.89257812 39.04882812 C-8.26174253 39.03781868 -13.63086626 39.0210952 -19 39 C-19 38.67 -19 38.34 -19 38 C-17.7934375 37.97421875 -16.586875 37.9484375 -15.34375 37.921875 C-13.72913262 37.86555114 -12.11455067 37.8082048 -10.5 37.75 C-9.31277344 37.72873047 -9.31277344 37.72873047 -8.1015625 37.70703125 C-2.42960236 37.47457387 2.33897035 36.38896414 7 33 C8.75270389 30.73291908 9.78122109 28.63256245 11 26 C11.33 25.34 11.66 24.68 12 24 C12.56088092 18.00288865 12.45741843 13.12651698 9 8 C6.16927446 4.87894363 3.3877029 2.54077717 0 0 Z " fill="#F09B00" transform="translate(257,258)"/>
<path d="M0 0 C7.2452303 3.86412283 13.27415452 10.19642811 19 16 C18.21496094 16.07476562 17.42992187 16.14953125 16.62109375 16.2265625 C9.4604373 17.12274282 4.65957517 18.30192714 0 24 C-3.17766541 28.76649811 -3.64011491 33.41557614 -4 39 C-13.61538177 37.63623849 -23.11371568 29.53590586 -30 23 C-31.27734375 20.76171875 -31.27734375 20.76171875 -32 19 C-31.24976563 18.52691406 -30.49953125 18.05382812 -29.7265625 17.56640625 C-23.31623469 13.4247209 -17.6819628 9.16907774 -12.15625 3.8828125 C-8.2314162 0.45569313 -5.2327293 -0.62792752 0 0 Z " fill="#924528" transform="translate(204,195)"/>
<path d="M0 0 C0 12.87 0 25.74 0 39 C-10.89 39 -21.78 39 -33 39 C-30 37 -30 37 -27.5625 35.8125 C-23.59951274 33.00941145 -22.15150876 29.30301752 -20 25 C-19.34919513 18.85490015 -20.21278617 14.46722713 -23 9 C-23.433125 7.8553125 -23.433125 7.8553125 -23.875 6.6875 C-25.47331935 4.29002097 -27.32194747 3.91445696 -30 3 C-30.99 2.34 -31.98 1.68 -33 1 C-28.43755286 0.83186513 -23.87503444 0.66574745 -19.3125 0.5 C-18.01892578 0.45230469 -16.72535156 0.40460938 -15.39257812 0.35546875 C-13.52182617 0.28779297 -13.52182617 0.28779297 -11.61328125 0.21875 C-9.89298706 0.1559082 -9.89298706 0.1559082 -8.13793945 0.09179688 C-5.42628045 0.01247035 -2.71281906 0 0 0 Z " fill="#E5387F" transform="translate(289,218)"/>
<path d="M0 0 C0 12.87 0 25.74 0 39 C-10.89 39 -21.78 39 -33 39 C-30 37 -30 37 -27.5625 35.8125 C-23.59951274 33.00941145 -22.15150876 29.30301752 -20 25 C-19.23298785 18.12203859 -19.85161116 13.5675745 -24 8 C-26.75417588 5.29616154 -29.78913791 3.14057473 -33 1 C-28.9432275 0.85669424 -24.88642396 0.71430497 -20.82958984 0.57275391 C-19.4503493 0.52450154 -18.07111739 0.47600154 -16.69189453 0.42724609 C-14.70607777 0.35709107 -12.7202267 0.28790901 -10.734375 0.21875 C-9.54038086 0.17685547 -8.34638672 0.13496094 -7.11621094 0.09179688 C-4.74497189 0.02194527 -2.37226766 0 0 0 Z " fill="#05B8E2" transform="translate(289,140)"/>
<path d="M0 0 C10.89 0 21.78 0 33 0 C33 12.54 33 25.08 33 38 C22.44 38 11.88 38 1 38 C2.65 36.68 4.3 35.36 6 34 C10.90532972 29.55098002 13.02373943 26.29346488 13.375 19.6875 C13.22572265 14.08026954 11.43785095 9.50786755 7.50390625 5.4609375 C5.13286348 3.4387514 2.59102456 1.72734971 0 0 Z " fill="#D32976" transform="translate(256,180)"/>
<path d="M0 0 C10.11810524 -0.04630135 20.23618536 -0.081858 30.35437489 -0.10362434 C35.05245005 -0.11407008 39.75045283 -0.12824368 44.44848633 -0.15087891 C48.98072205 -0.17257914 53.51288808 -0.18456268 58.04517174 -0.18975449 C59.77596827 -0.19345532 61.50676091 -0.20068194 63.23752785 -0.21146011 C65.65819221 -0.22593762 68.07856702 -0.22797952 70.49926758 -0.22705078 C71.57712524 -0.23783661 71.57712524 -0.23783661 72.67675781 -0.24884033 C76.35098917 -0.23354469 77.8536785 -0.09754767 81 2 C81.375 5 81.375 5 81 8 C77.35996076 10.42669283 74.7027485 10.26911387 70.49926758 10.22705078 C69.73805099 10.22734283 68.97683441 10.22763489 68.19255066 10.22793579 C65.67642824 10.22654243 63.16060194 10.21098107 60.64453125 10.1953125 C58.90004132 10.19158239 57.15554929 10.18873541 55.41105652 10.18673706 C50.81936866 10.17910045 46.22780731 10.15945171 41.63616943 10.1373291 C36.95082307 10.11687129 32.26545627 10.10773548 27.58007812 10.09765625 C18.38666317 10.07620585 9.1933421 10.04206955 0 10 C0 6.7 0 3.4 0 0 Z " fill="#B8DBF6" transform="translate(378,296)"/>
<path d="M0 0 C1.12067871 0.01047363 2.24135742 0.02094727 3.39599609 0.03173828 C4.48734863 0.0367334 5.57870117 0.04172852 6.703125 0.046875 C8.09450684 0.06508301 9.48588867 0.08329102 10.91943359 0.10205078 C15.33318359 0.14330078 19.74693359 0.18455078 24.29443359 0.22705078 C24.29443359 9.13705078 24.29443359 18.04705078 24.29443359 27.22705078 C14.72443359 27.22705078 5.15443359 27.22705078 -4.70556641 27.22705078 C-4.74681641 23.14330078 -4.78806641 19.05955078 -4.83056641 14.85205078 C-4.84877441 13.56508301 -4.86698242 12.27811523 -4.88574219 10.95214844 C-4.8907373 9.94200684 -4.89573242 8.93186523 -4.90087891 7.89111328 C-4.91135254 6.85422363 -4.92182617 5.81733398 -4.93261719 4.74902344 C-4.60331952 1.09134074 -3.62755552 0.30442399 0 0 Z " fill="#61B4E2" transform="translate(315.70556640625,82.77294921875)"/>
<path d="M0 0 C9.09230801 -0.04628063 18.18457566 -0.08184737 27.27697563 -0.10362434 C31.4986575 -0.11407464 35.72025895 -0.12825645 39.94189453 -0.15087891 C44.01377277 -0.17256303 48.08557353 -0.18455923 52.15750504 -0.18975449 C53.71329087 -0.19345824 55.26907232 -0.20069046 56.82482529 -0.21146011 C58.99903374 -0.22591638 61.17291942 -0.22798044 63.34716797 -0.22705078 C64.58626923 -0.231492 65.82537048 -0.23593323 67.10202026 -0.24050903 C70 0 70 0 72 2 C72.25 4.5 72.25 4.5 72 7 C70 9 70 9 67.10202026 9.24050903 C65.86291901 9.23606781 64.62381775 9.23162659 63.34716797 9.22705078 C62.66412598 9.22734283 61.98108398 9.22763489 61.27734375 9.22793579 C59.01549659 9.22654039 56.75397724 9.21096967 54.4921875 9.1953125 C52.92563049 9.19158311 51.35907116 9.18873579 49.79251099 9.18673706 C45.66605203 9.17909476 41.53973349 9.15944124 37.41333008 9.1373291 C33.20395813 9.11688346 28.99456352 9.1077381 24.78515625 9.09765625 C16.523373 9.07619583 8.26170396 9.04205279 0 9 C0 6.03 0 3.06 0 0 Z " fill="#B7DAF5" transform="translate(387,225)"/>
<path d="M0 0 C3.99625051 1.33717751 6.52318017 3.30784219 8.9375 6.8125 C10.18082407 10.54247221 10.48864783 13.09081737 10 17 C7.565249 21.77585774 4.79765866 24.60117067 0 27 C-4.45419379 27.87302198 -7.28868177 27.37579076 -11.3125 25.25 C-14.52028912 22.56440911 -16.67674985 20.63629729 -17.50390625 16.44921875 C-17.61269985 11.32141357 -17.53052606 7.89668481 -14.125 3.875 C-9.83004203 -0.46145515 -5.92864049 -0.68892549 0 0 Z " fill="#B7DBF6" transform="translate(243,380)"/>
<path d="M0 0 C5.4786052 3.01882328 11.06822536 7.81832117 13 14 C12.91527767 17.98194955 12.29041973 19.64504255 9.75 22.75 C6.1981507 25.65605852 3.65245485 26.78446241 -0.875 27.375 C-5.94500251 26.7665997 -9.46220785 24.63700455 -12.9375 20.9375 C-14.62527136 16.27130859 -14.88634403 11.88536078 -14 7 C-10.47245916 0.82950043 -7.05115385 -1.76278846 0 0 Z " fill="#FBE172" transform="translate(186,111)"/>
<path d="M0 0 C3.43761572 2.12108204 5.77560839 4.1042085 7 8 C7.68482879 14.049321 6.40910735 17.17043126 3 22 C-1.35304475 24.79374514 -5.9974446 24.66484529 -11 24 C-14.66711159 21.86085157 -16.37072212 19.85102043 -18 16 C-18.64908204 12.24215662 -18.84103267 8.58489424 -17.01953125 5.15234375 C-12.06063821 -1.05771615 -7.39287203 -1.83501645 0 0 Z " fill="#83B31C" transform="translate(372,289)"/>
<path d="M0 0 C3.24168949 1.62084474 5.19736744 2.94198435 7.375 5.8125 C8.65727049 10.30044672 8.41817382 13.91274806 6.75 18.25 C4.50714672 21.77448372 3.05347508 23.45919931 -1.046875 24.5390625 C-5.22918732 25.25482736 -7.45137002 25.25399536 -11.375 23.4375 C-15.28299732 19.80864534 -16.73445511 16.82562109 -17.5 11.5625 C-16.86641171 7.04818345 -15.08005715 4.30406131 -12 1 C-8.28986322 -0.85506839 -4.04907177 -0.45334699 0 0 Z " fill="#F3B604" transform="translate(427,253)"/>
<path d="M0 0 C3.76877031 1.63859579 5.81954834 3.55170145 8 7 C8.74383684 11.4848986 8.49961639 15.69544611 6.875 19.9375 C3.55114421 23.59374137 0.35927659 24.83009043 -4.5 25.4375 C-8.79719042 24.9003512 -10.76263107 23.8694861 -14 21 C-16.19982866 17.23900261 -17 14.79593296 -17 10.4375 C-15.74202543 6.1132124 -14.13023975 4.20658706 -11 1 C-7.55105608 -0.72447196 -3.77843255 -0.36671096 0 0 Z " fill="#E53A80" transform="translate(379,217)"/>
<path d="M0 0 C0.89589844 0.00322266 1.79179687 0.00644531 2.71484375 0.00976562 C4.12056641 0.02233398 4.12056641 0.02233398 5.5546875 0.03515625 C6.49957031 0.03966797 7.44445312 0.04417969 8.41796875 0.04882812 C10.75527137 0.06063268 13.09244811 0.07709866 15.4296875 0.09765625 C14.61628906 0.84015625 13.80289062 1.58265625 12.96484375 2.34765625 C10.13726927 5.32464442 10.13726927 5.32464442 9.8671875 9.09765625 C9.86589844 9.73703125 9.86460937 10.37640625 9.86328125 11.03515625 C10.67306082 13.98387082 12.44275833 15.82236559 14.4296875 18.09765625 C11.36623606 18.20588417 8.3066274 18.28507104 5.2421875 18.34765625 C4.37787109 18.38117188 3.51355469 18.4146875 2.62304688 18.44921875 C-1.6314919 18.51442241 -3.92758966 18.49596336 -7.62109375 16.20703125 C-9.94484829 13.69234698 -10.504342 12.69139072 -10.8828125 9.28515625 C-10.49866892 5.36689175 -9.27774933 3.88472358 -6.5703125 1.09765625 C-4.16971433 -0.10264283 -2.67670601 -0.01694118 0 0 Z " fill="#F3B604" transform="translate(325.5703125,255.90234375)"/>
<path d="M0 0 C0.93585938 0.02255859 1.87171875 0.04511719 2.8359375 0.06835938 C5.14225674 0.12719405 7.44530838 0.20932854 9.75 0.3125 C9.26402344 0.89128906 8.77804687 1.47007812 8.27734375 2.06640625 C6.43665693 4.77329863 6.35020114 6.98575506 6.25390625 10.21484375 C6.96649909 13.22793315 8.73592363 15.01924472 10.75 17.3125 C7.52131254 17.45834064 4.29347635 17.54674106 1.0625 17.625 C-0.30551758 17.6878418 -0.30551758 17.6878418 -1.70117188 17.75195312 C-6.34298314 17.83634969 -8.52893916 17.84604879 -12.359375 15.01171875 C-14.84382878 11.464699 -14.93282582 9.56119399 -14.25 5.3125 C-10.94430479 -1.08591846 -6.41941114 -0.29220009 0 0 Z " fill="#E43980" transform="translate(329.25,220.6875)"/>
<path d="M0 0 C0.85078125 0.00322266 1.7015625 0.00644531 2.578125 0.00976562 C3.46757812 0.01814453 4.35703125 0.02652344 5.2734375 0.03515625 C6.170625 0.03966797 7.0678125 0.04417969 7.9921875 0.04882812 C10.21100398 0.06063034 12.42968768 0.0770947 14.6484375 0.09765625 C13.99746094 0.83886719 13.34648437 1.58007812 12.67578125 2.34375 C9.72104386 6.35741062 10.10566459 8.21270005 10.6484375 13.09765625 C12.09931259 15.31268965 12.09931259 15.31268965 13.6484375 17.09765625 C10.39891002 17.24312408 7.15022037 17.33177305 3.8984375 17.41015625 C2.97804688 17.45205078 2.05765625 17.49394531 1.109375 17.53710938 C-5.72138366 17.660855 -5.72138366 17.660855 -8.9609375 14.765625 C-10.66598312 11.49442792 -10.95842218 9.73881436 -10.3515625 6.09765625 C-7.27987687 1.4901278 -5.45176466 -0.0363451 0 0 Z " fill="#84B31A" transform="translate(325.3515625,291.90234375)"/>
<path d="M0 0 C3.60436513 -0.05384114 7.20792978 -0.0935974 10.8125 -0.125 C12.34874023 -0.15013672 12.34874023 -0.15013672 13.91601562 -0.17578125 C14.89892578 -0.18222656 15.88183594 -0.18867188 16.89453125 -0.1953125 C17.80050049 -0.20578613 18.70646973 -0.21625977 19.63989258 -0.22705078 C22 0 22 0 25 2 C25.375 5 25.375 5 25 8 C21.69711664 10.20192224 20.72537273 10.23959968 16.89453125 10.1953125 C15.91162109 10.18886719 14.92871094 10.18242187 13.91601562 10.17578125 C12.89185547 10.15902344 11.86769531 10.14226562 10.8125 10.125 C9.77673828 10.11597656 8.74097656 10.10695313 7.67382812 10.09765625 C5.11578694 10.07407983 2.55786447 10.03820876 0 10 C0 6.7 0 3.4 0 0 Z " fill="#B9DBF4" transform="translate(434,260)"/>
</svg>
